<svg xmlns="http://www.w3.org/2000/svg" viewBox="0 0 100 100">
  <defs>
    <linearGradient id="foxSad" x1="0%" y1="0%" x2="100%" y2="100%">
      <stop offset="0%" style="stop-color:#FF9A56"/>
      <stop offset="100%" style="stop-color:#CC8855"/>
    </linearGradient>
  </defs>
  <polygon points="15,35 25,5 40,30" fill="#CC8855"/>
  <polygon points="20,30 28,12 38,28" fill="#E8D4C4"/>
  <polygon points="60,30 75,5 85,35" fill="#CC8855"/>
  <polygon points="62,28 73,12 80,30" fill="#E8D4C4"/>
  <ellipse cx="50" cy="55" rx="38" ry="35" fill="url(#foxSad)"/>
  <ellipse cx="50" cy="62" rx="25" ry="22" fill="#F5EDE0"/>
  <ellipse cx="35" cy="50" rx="8" ry="9" fill="#2D1B0E"/>
  <ellipse cx="65" cy="50" rx="8" ry="9" fill="#2D1B0E"/>
  <ellipse cx="37" cy="48" rx="3" ry="3" fill="#FFF"/>
  <ellipse cx="67" cy="48" rx="3" ry="3" fill="#FFF"/>
  <ellipse cx="50" cy="62" rx="5" ry="4" fill="#2D1B0E"/>
  <!-- Sad mouth -->
  <path d="M42 72 Q50 66 58 72" stroke="#2D1B0E" stroke-width="2" fill="none"/>
  <!-- Tear -->
  <ellipse cx="28" cy="58" rx="3" ry="5" fill="#87CEEB" opacity="0.7"/>
  <ellipse cx="72" cy="58" rx="3" ry="5" fill="#87CEEB" opacity="0.7"/>
</svg>