<svg xmlns="http://www.w3.org/2000/svg" viewBox="0 0 100 100">
  <defs>
    <linearGradient id="foxGrad" x1="0%" y1="0%" x2="100%" y2="100%">
      <stop offset="0%" style="stop-color:#FF9A56"/>
      <stop offset="100%" style="stop-color:#FF6B35"/>
    </linearGradient>
  </defs>
  <!-- Ears -->
  <polygon points="15,35 25,5 40,30" fill="#FF9A56"/>
  <polygon points="20,30 28,12 38,28" fill="#FFE4C4"/>
  <polygon points="60,30 75,5 85,35" fill="#FF9A56"/>
  <polygon points="62,28 73,12 80,30" fill="#FFE4C4"/>
  <!-- Face -->
  <ellipse cx="50" cy="55" rx="38" ry="35" fill="url(#foxGrad)"/>
  <!-- White face markings -->
  <ellipse cx="50" cy="62" rx="25" ry="22" fill="#FFF5E6"/>
  <!-- Eyes -->
  <ellipse cx="35" cy="50" rx="8" ry="9" fill="#2D1B0E"/>
  <ellipse cx="65" cy="50" rx="8" ry="9" fill="#2D1B0E"/>
  <ellipse cx="37" cy="48" rx="3" ry="3" fill="#FFF"/>
  <ellipse cx="67" cy="48" rx="3" ry="3" fill="#FFF"/>
  <!-- Nose -->
  <ellipse cx="50" cy="62" rx="5" ry="4" fill="#2D1B0E"/>
  <!-- Mouth -->
  <path d="M42 70 Q50 78 58 70" stroke="#2D1B0E" stroke-width="2" fill="none"/>
  <!-- Blush -->
  <ellipse cx="25" cy="60" rx="6" ry="4" fill="#FFB6C1" opacity="0.6"/>
  <ellipse cx="75" cy="60" rx="6" ry="4" fill="#FFB6C1" opacity="0.6"/>
</svg>