<svg xmlns="http://www.w3.org/2000/svg" viewBox="0 0 100 100">
  <defs>
    <linearGradient id="profGrad" x1="0%" y1="0%" x2="100%" y2="100%">
      <stop offset="0%" style="stop-color:#6B5B4F"/>
      <stop offset="100%" style="stop-color:#4A3F35"/>
    </linearGradient>
  </defs>
  <!-- Hair -->
  <ellipse cx="50" cy="40" rx="35" ry="25" fill="#8B7355"/>
  <ellipse cx="30" cy="50" rx="12" ry="15" fill="#8B7355"/>
  <ellipse cx="70" cy="50" rx="12" ry="15" fill="#8B7355"/>
  <!-- Face -->
  <ellipse cx="50" cy="55" rx="28" ry="30" fill="#F5DEB3"/>
  <!-- Eyes (intelligent, thoughtful) -->
  <ellipse cx="38" cy="50" rx="5" ry="6" fill="#4A3728"/>
  <ellipse cx="62" cy="50" rx="5" ry="6" fill="#4A3728"/>
  <ellipse cx="39" cy="49" rx="2" ry="2" fill="#FFF"/>
  <ellipse cx="63" cy="49" rx="2" ry="2" fill="#FFF"/>
  <!-- Glasses -->
  <rect x="28" y="45" width="18" height="12" rx="3" fill="none" stroke="#8B7355" stroke-width="2"/>
  <rect x="54" y="45" width="18" height="12" rx="3" fill="none" stroke="#8B7355" stroke-width="2"/>
  <line x1="46" y1="51" x2="54" y2="51" stroke="#8B7355" stroke-width="2"/>
  <!-- Mustache -->
  <path d="M35 65 Q50 72 65 65" stroke="#5D4E37" stroke-width="3" fill="none"/>
  <!-- Mouth -->
  <path d="M42 72 Q50 75 58 72" stroke="#5D4E37" stroke-width="1.5" fill="none"/>
  <!-- Bow tie -->
  <polygon points="40,82 50,78 60,82 50,88" fill="#8B0000"/>
  <circle cx="50" cy="82" r="3" fill="#5D0000"/>
</svg>